<?xml version="1.0" encoding="UTF-8"?>
<svg width="700pt" height="700pt" version="1.1" viewBox="0 0 700 700" xmlns="http://www.w3.org/2000/svg">
 <path d="m350 17.5c-144.88 0-262.5 117.62-262.5 262.5s117.62 262.5 262.5 262.5 262.5-117.62 262.5-262.5-117.62-262.5-262.5-262.5zm0 35c125.56 0 227.5 101.94 227.5 227.5s-101.94 227.5-227.5 227.5-227.5-101.94-227.5-227.5 101.94-227.5 227.5-227.5zm0 70h-87.5c-28.996 0-52.5 23.504-52.5 52.5v210c0 28.996 23.504 52.5 52.5 52.5h175c13.93 0 27.281-5.5312 37.117-15.383 9.8516-9.8359 15.383-23.188 15.383-37.117v-157.5c0-9.6602-7.8398-17.5-17.5-17.5s-17.5 7.8398-17.5 17.5v157.5c0 4.6367-1.8359 9.1016-5.1289 12.371-3.2695 3.293-7.7344 5.1289-12.371 5.1289h-175c-9.6602 0-17.5-7.8398-17.5-17.5v-210c0-9.6602 7.8398-17.5 17.5-17.5h87.5c9.6602 0 17.5-7.8398 17.5-17.5s-7.8398-17.5-17.5-17.5zm0 115.25-40.129-40.125c-6.8242-6.8281-17.918-6.8281-24.742 0-6.8281 6.8242-6.8281 17.918 0 24.742l40.125 40.129c13.668 13.668 35.824 13.668 49.492 0 31.742-31.746 113.61-113.59 113.61-113.59 6.8242-6.8398 6.8242-17.918 0-24.762-6.8438-6.8242-17.922-6.8242-24.762 0z" fill-rule="evenodd"/>
</svg>
